HIERARCHY
ROOT Hips
{
  OFFSET -24.5077 92.419 -73.7383
  CHANNELS 6 Xposition Yposition Zposition Zrotation Xrotation Yrotation
  JOINT LeftUpLeg
  {
    OFFSET 9.63379 -0.250344 0
    CHANNELS 6 Xposition Yposition Zposition Zrotation Xrotation Yrotation
    JOINT LeftLeg
    {
      OFFSET 0 -40.4779 -1.71313
      CHANNELS 6 Xposition Yposition Zposition Zrotation Xrotation Yrotation
      JOINT LeftFoot
      {
        OFFSET 0.0126047 -40.4416 -0.864524
        CHANNELS 6 Xposition Yposition Zposition Zrotation Xrotation Yrotation
        JOINT LeftToeBase
        {
          OFFSET -0.183287 -12.1867 8.28226
          CHANNELS 6 Xposition Yposition Zposition Zrotation Xrotation Yrotation
          End Site
          {
            OFFSET 0 0 9.15615
          }
        }
      }
    }
  }
  JOINT RightUpLeg
  {
    OFFSET -9.63379 -0.250344 0
    CHANNELS 6 Xposition Yposition Zposition Zrotation Xrotation Yrotation
    JOINT RightLeg
    {
      OFFSET 0 -40.478 -1.71313
      CHANNELS 6 Xposition Yposition Zposition Zrotation Xrotation Yrotation
      JOINT RightFoot
      {
        OFFSET -0.0126047 -40.4414 -0.864524
        CHANNELS 6 Xposition Yposition Zposition Zrotation Xrotation Yrotation
        JOINT RightToeBase
        {
          OFFSET 0.183287 -12.1867 8.28226
          CHANNELS 6 Xposition Yposition Zposition Zrotation Xrotation Yrotation
          End Site
          {
            OFFSET 0.00319481 0 9.156
          }
        }
      }
    }
  }
  JOINT Spine
  {
    OFFSET 0 5.60909 -1.89659
    CHANNELS 6 Xposition Yposition Zposition Zrotation Xrotation Yrotation
    JOINT Spine1
    {
      OFFSET 0 6.56349 1.09934
      CHANNELS 6 Xposition Yposition Zposition Zrotation Xrotation Yrotation
      JOINT Spine2
      {
        OFFSET 0 7.57662 1.04304
        CHANNELS 6 Xposition Yposition Zposition Zrotation Xrotation Yrotation
        JOINT Spine3
        {
          OFFSET 0 8.29213 0.399731
          CHANNELS 6 Xposition Yposition Zposition Zrotation Xrotation Yrotation
          JOINT Spine4
          {
            OFFSET 0 8.9581 -0.526302
            CHANNELS 6 Xposition Yposition Zposition Zrotation Xrotation Yrotation
            JOINT Neck
            {
              OFFSET 0 18.4163 -4.35419
              CHANNELS 6 Xposition Yposition Zposition Zrotation Xrotation Yrotation
              JOINT Head
              {
                OFFSET 0 8.97127 1.78542
                CHANNELS 6 Xposition Yposition Zposition Zrotation Xrotation Yrotation
                End Site
                {
                  OFFSET 0 19.3737 0.971395
                }
              }
            }
            JOINT LeftShoulder
            {
              OFFSET 6.14423 15.3316 -3.79324
              CHANNELS 6 Xposition Yposition Zposition Zrotation Xrotation Yrotation
              JOINT LeftArm
              {
                OFFSET 9.01906 -1.11411 -1.79347
                CHANNELS 6 Xposition Yposition Zposition Zrotation Xrotation Yrotation
                JOINT LeftForeArm
                {
                  OFFSET 27.687 0 0
                  CHANNELS 6 Xposition Yposition Zposition Zrotation Xrotation Yrotation
                  JOINT LeftHand
                  {
                    OFFSET 27.8738 0 0
                    CHANNELS 6 Xposition Yposition Zposition Zrotation Xrotation Yrotation
                    End Site
                    {
                      OFFSET 5 0 0
                    }
                  }
                }
              }
            }
            JOINT RightShoulder
            {
              OFFSET -6.14423 15.3316 -3.79324
              CHANNELS 6 Xposition Yposition Zposition Zrotation Xrotation Yrotation
              JOINT RightArm
              {
                OFFSET -9.01884 -1.11411 -1.79347
                CHANNELS 6 Xposition Yposition Zposition Zrotation Xrotation Yrotation
                JOINT RightForeArm
                {
                  OFFSET -27.0381 0.00109999 0
                  CHANNELS 6 Xposition Yposition Zposition Zrotation Xrotation Yrotation
                  JOINT RightHand
                  {
                    OFFSET -28.5227 0 0
                    CHANNELS 6 Xposition Yposition Zposition Zrotation Xrotation Yrotation
                    End Site
                    {
                      OFFSET -5 0 0
                    }
                  }
                }
              }
            }
          }
        }
      }
    }
  }
}
MOTION
Frames:	4
Frame Time:	0.00833333
-27.9406 108.728 -69.1737 0.273804 2.49454 -0.135913 9.63379 -0.250344 -7.15256e-007 3.07752 -4.74515 10.2113 0 -40.4779 -1.71313 0.560107 1.14835 -0.00832028 0.0126047 -40.4416 -0.864524 0.0820845 -0.84547 -0.000731309 -0.183287 -12.1867 8.28226 1.47225e-011 -1.11873e-010 -1.0191e-010 -9.63379 -0.250344 -7.15256e-007 -2.43326 -7.49082 -0.216477 0 -40.478 -1.71313 -0.148683 5.17637 -0.183862 -0.0126047 -40.4414 -0.864524 -0.0132379 -2.26413 0.00759981 0.183287 -12.1867 8.28226 1.5653e-013 -1.53978e-011 -7.71141e-011 -2.64698e-023 5.60909 -1.89659 0.59272 -0.581009 0.0250226 0 6.56349 1.09934 -0.368113 -1.16674 -0.025855 0 7.57662 1.04304 -0.368082 -1.16674 -0.0264101 0 8.29213 0.399731 -0.368063 -1.16673 -0.0269658 0 8.9581 -0.526302 -0.368055 -1.16672 -0.0275219 0 18.4163 -4.35419 -2.88867 -13.2087 0.0697629 1.05879e-022 8.97127 1.78542 2.66517 -6.72746 -0.908797 6.14423 15.3316 -3.79324 -19.9638 1.89256 -3.64552 9.01906 -1.11411 -1.79347 -42.5676 19.8966 -21.5328 27.687 0 0 -0.381568 2.47493 -50.7957 27.8738 0 0 17.71 0.288784 -10.5892 -6.14423 15.3316 -3.79324 26.1972 10.474 28.1328 -9.01884 -1.11411 -1.79347 49.3108 23.0047 -2.35144 -27.0381 0.00109999 5.96046e-008 -30.9081 -7.91551 61.1812 -28.5227 0 0 -11.3507 -3.29784 -6.52805 
-27.9901 108.194 -69.15 0.251725 2.59354 0.301368 9.63379 -0.250344 -7.15256e-007 3.11222 -5.03488 10.1419 0 -40.4779 -1.71313 0.652488 1.22771 -0.0107268 0.0126047 -40.4416 -0.864524 0.0856571 -0.854367 -0.000731311 -0.183287 -12.1867 8.28226 1.47225e-011 -1.11873e-010 -1.0191e-010 -9.63379 -0.250344 -7.15256e-007 -2.4577 -7.44342 -0.634844 0 -40.478 -1.71313 -0.128521 5.03295 -0.20078 -0.0126047 -40.4414 -0.864524 -0.0160102 -2.21854 0.00755733 0.183287 -12.1867 8.28226 1.5653e-013 -1.53978e-011 -7.71141e-011 -2.64698e-023 5.60909 -1.89659 0.548368 -0.607894 -0.0276333 0 6.56349 1.09934 -0.392868 -1.21971 -0.131976 0 7.57662 1.04304 -0.392841 -1.21966 -0.132536 0 8.29213 0.399731 -0.392827 -1.2196 -0.133097 0 8.9581 -0.526302 -0.392825 -1.21954 -0.133657 0 18.4163 -4.35419 -2.60388 -12.5133 0.0670995 1.05879e-022 8.97127 1.78542 2.54891 -7.20613 -0.845537 6.14423 15.3316 -3.79324 -20.0344 1.86771 -3.53419 9.01906 -1.11411 -1.79347 -42.5174 19.7442 -21.2243 27.687 0 0 -0.335312 2.43217 -50.9525 27.8738 0 0 17.7683 0.281649 -10.4967 -6.14423 15.3316 -3.79324 26.3346 10.4783 28.0222 -9.01884 -1.11411 -1.79347 49.3484 22.633 -2.64453 -27.0381 0.00109999 5.96046e-008 -30.8966 -7.95508 61.7482 -28.5227 0 0 -11.682 -3.4108 -6.6981 
-28.0477 107.591 -69.098 0.239428 2.5587 0.468092 9.63379 -0.250344 -7.15256e-007 3.18292 -5.05161 10.1914 0 -40.4779 -1.71313 0.655532 1.1978 -0.0109448 0.0126047 -40.4416 -0.864524 0.0850602 -0.856637 -0.000731311 -0.183287 -12.1867 8.28226 1.47225e-011 -1.11873e-010 -1.0191e-010 -9.63379 -0.250344 -7.15256e-007 -2.47427 -7.30763 -0.713948 0 -40.478 -1.71313 -0.0572167 4.96529 -0.258652 -0.0126047 -40.4414 -0.864524 -0.0139122 -2.1555 0.00751488 0.183287 -12.1867 8.28226 1.5653e-013 -1.53978e-011 -7.71141e-011 -2.64698e-023 5.60909 -1.89659 0.519115 -0.61498 -0.0477253 0 6.56349 1.09934 -0.426451 -1.23347 -0.170707 0 7.57662 1.04304 -0.426427 -1.2334 -0.171269 0 8.29213 0.399731 -0.426415 -1.23332 -0.171831 0 8.9581 -0.526302 -0.426415 -1.23324 -0.172392 0 18.4163 -4.35419 -2.23958 -11.9697 0.0329706 1.05879e-022 8.97127 1.78542 2.37506 -7.52455 -0.784647 6.14423 15.3316 -3.79324 -20.0745 1.83156 -3.38844 9.01906 -1.11411 -1.79347 -42.421 19.6564 -21.0138 27.687 0 0 -0.373463 2.35752 -51.0401 27.8738 0 0 17.9433 0.266501 -10.5212 -6.14423 15.3316 -3.79324 26.4977 10.4502 27.798 -9.01884 -1.11411 -1.79347 49.377 22.1434 -2.98919 -27.0381 0.00109999 5.96046e-008 -30.9991 -7.8528 62.4814 -28.5227 0 0 -11.9861 -3.51617 -6.86932 
-28.1082 106.921 -69.0382 0.223973 2.48532 0.567788 9.63379 -0.250344 -7.15256e-007 3.2749 -4.98731 10.285 0 -40.4779 -1.71313 0.625801 1.14479 -0.0108836 0.0126047 -40.4416 -0.864524 0.0827903 -0.840971 -0.000731308 -0.183287 -12.1867 8.28226 1.47225e-011 -1.11873e-010 -1.0191e-010 -9.63379 -0.250344 -7.15256e-007 -2.49095 -7.1348 -0.680533 0 -40.478 -1.71313 0.0517196 4.91868 -0.347057 -0.0126047 -40.4414 -0.864524 -0.00936429 -2.06439 0.00747242 0.183287 -12.1867 8.28226 1.5653e-013 -1.53978e-011 -7.71141e-011 -2.64698e-023 5.60909 -1.89659 0.493487 -0.614741 -0.0580671 0 6.56349 1.09934 -0.463419 -1.2327 -0.188703 0 7.57662 1.04304 -0.463395 -1.23262 -0.189263 0 8.29213 0.399731 -0.463384 -1.23254 -0.189823 0 8.9581 -0.526302 -0.463385 -1.23245 -0.190383 0 18.4163 -4.35419 -1.81563 -11.5263 -0.0269206 1.05879e-022 8.97127 1.78542 2.15983 -7.72887 -0.728303 6.14423 15.3316 -3.79324 -20.102 1.78611 -3.21118 9.01906 -1.11411 -1.79347 -42.2802 19.6254 -20.8827 27.687 0 0 -0.475286 2.26485 -51.067 27.8738 0 0 18.2017 0.245556 -10.6257 -6.14423 15.3316 -3.79324 26.6792 10.3937 27.4783 -9.01884 -1.11411 -1.79347 49.3987 21.6293 -3.34795 -27.0381 0.00109999 5.96046e-008 -31.1812 -7.66906 63.2856 -28.5227 0 0 -12.3064 -3.6217 -7.03185 
